M48
; DRILL file {KiCad (5.1.0-0)} date Sunday, 17 March 2019 at 12:10:40
; FORMAT={-:-/ absolute / inch / decimal}
; #@! TF.CreationDate,2019-03-17T12:10:40+00:00
; #@! TF.GenerationSoftware,Kicad,Pcbnew,(5.1.0-0)
FMAT,2
INCH
T1C0.0394
T2C0.0433
T3C0.0669
T4C0.1378
%
G90
G05
T1
X1.4374Y-2.5083
X1.4374Y-2.6083
X1.5374Y-2.5083
X1.5374Y-2.6083
X1.6374Y-2.5083
X1.6374Y-2.6083
X1.7374Y-2.5083
X1.7374Y-2.6083
X1.8374Y-2.5083
X1.8374Y-2.6083
X1.9374Y-2.5083
X1.9374Y-2.6083
X2.0374Y-2.5083
X2.0374Y-2.6083
T2
X2.5689Y-2.2736
X2.5689Y-2.5295
X2.7461Y-2.2736
X2.7461Y-2.5295
X2.9232Y-2.2736
X2.9232Y-2.5295
X3.1004Y-2.2736
X3.1004Y-2.5295
X3.2776Y-2.2736
X3.2776Y-2.5295
X3.4547Y-2.2736
X3.4547Y-2.5295
T3
X2.2441Y-2.2638
X2.2441Y-2.5394
X2.4409Y-2.2638
X2.4409Y-2.5394
X3.5827Y-2.2638
X3.5827Y-2.5394
X3.7795Y-2.2638
X3.7795Y-2.5394
T4
X2.3425Y-2.4016
X3.6811Y-2.4016
T0
M30
