G04 #@! TF.GenerationSoftware,KiCad,Pcbnew,(5.1.0-0)*
G04 #@! TF.CreationDate,2019-03-17T12:10:36+00:00*
G04 #@! TF.ProjectId,A1200,41313230-302e-46b6-9963-61645f706362,rev?*
G04 #@! TF.SameCoordinates,Original*
G04 #@! TF.FileFunction,Soldermask,Bot*
G04 #@! TF.FilePolarity,Negative*
%FSLAX46Y46*%
G04 Gerber Fmt 4.6, Leading zero omitted, Abs format (unit mm)*
G04 Created by KiCad (PCBNEW (5.1.0-0)) date 2019-03-17 12:10:36*
%MOMM*%
%LPD*%
G04 APERTURE LIST*
%ADD10C,0.100000*%
G04 APERTURE END LIST*
D10*
G36*
X52651000Y-67151000D02*
G01*
X50849000Y-67151000D01*
X50849000Y-65349000D01*
X52651000Y-65349000D01*
X52651000Y-67151000D01*
X52651000Y-67151000D01*
G37*
G36*
X49320443Y-65355519D02*
G01*
X49386627Y-65362037D01*
X49556466Y-65413557D01*
X49712991Y-65497222D01*
X49740592Y-65519874D01*
X49850186Y-65609814D01*
X49894298Y-65663566D01*
X49962778Y-65747009D01*
X50046443Y-65903534D01*
X50097963Y-66073373D01*
X50115359Y-66250000D01*
X50097963Y-66426627D01*
X50046443Y-66596466D01*
X49962778Y-66752991D01*
X49933448Y-66788729D01*
X49850186Y-66890186D01*
X49748729Y-66973448D01*
X49712991Y-67002778D01*
X49556466Y-67086443D01*
X49386627Y-67137963D01*
X49320442Y-67144482D01*
X49254260Y-67151000D01*
X49165740Y-67151000D01*
X49099558Y-67144482D01*
X49033373Y-67137963D01*
X48863534Y-67086443D01*
X48707009Y-67002778D01*
X48671271Y-66973448D01*
X48569814Y-66890186D01*
X48486552Y-66788729D01*
X48457222Y-66752991D01*
X48373557Y-66596466D01*
X48322037Y-66426627D01*
X48304641Y-66250000D01*
X48322037Y-66073373D01*
X48373557Y-65903534D01*
X48457222Y-65747009D01*
X48525702Y-65663566D01*
X48569814Y-65609814D01*
X48679408Y-65519874D01*
X48707009Y-65497222D01*
X48863534Y-65413557D01*
X49033373Y-65362037D01*
X49099557Y-65355519D01*
X49165740Y-65349000D01*
X49254260Y-65349000D01*
X49320443Y-65355519D01*
X49320443Y-65355519D01*
G37*
G36*
X46780443Y-65355519D02*
G01*
X46846627Y-65362037D01*
X47016466Y-65413557D01*
X47172991Y-65497222D01*
X47200592Y-65519874D01*
X47310186Y-65609814D01*
X47354298Y-65663566D01*
X47422778Y-65747009D01*
X47506443Y-65903534D01*
X47557963Y-66073373D01*
X47575359Y-66250000D01*
X47557963Y-66426627D01*
X47506443Y-66596466D01*
X47422778Y-66752991D01*
X47393448Y-66788729D01*
X47310186Y-66890186D01*
X47208729Y-66973448D01*
X47172991Y-67002778D01*
X47016466Y-67086443D01*
X46846627Y-67137963D01*
X46780442Y-67144482D01*
X46714260Y-67151000D01*
X46625740Y-67151000D01*
X46559558Y-67144482D01*
X46493373Y-67137963D01*
X46323534Y-67086443D01*
X46167009Y-67002778D01*
X46131271Y-66973448D01*
X46029814Y-66890186D01*
X45946552Y-66788729D01*
X45917222Y-66752991D01*
X45833557Y-66596466D01*
X45782037Y-66426627D01*
X45764641Y-66250000D01*
X45782037Y-66073373D01*
X45833557Y-65903534D01*
X45917222Y-65747009D01*
X45985702Y-65663566D01*
X46029814Y-65609814D01*
X46139408Y-65519874D01*
X46167009Y-65497222D01*
X46323534Y-65413557D01*
X46493373Y-65362037D01*
X46559557Y-65355519D01*
X46625740Y-65349000D01*
X46714260Y-65349000D01*
X46780443Y-65355519D01*
X46780443Y-65355519D01*
G37*
G36*
X44240443Y-65355519D02*
G01*
X44306627Y-65362037D01*
X44476466Y-65413557D01*
X44632991Y-65497222D01*
X44660592Y-65519874D01*
X44770186Y-65609814D01*
X44814298Y-65663566D01*
X44882778Y-65747009D01*
X44966443Y-65903534D01*
X45017963Y-66073373D01*
X45035359Y-66250000D01*
X45017963Y-66426627D01*
X44966443Y-66596466D01*
X44882778Y-66752991D01*
X44853448Y-66788729D01*
X44770186Y-66890186D01*
X44668729Y-66973448D01*
X44632991Y-67002778D01*
X44476466Y-67086443D01*
X44306627Y-67137963D01*
X44240442Y-67144482D01*
X44174260Y-67151000D01*
X44085740Y-67151000D01*
X44019558Y-67144482D01*
X43953373Y-67137963D01*
X43783534Y-67086443D01*
X43627009Y-67002778D01*
X43591271Y-66973448D01*
X43489814Y-66890186D01*
X43406552Y-66788729D01*
X43377222Y-66752991D01*
X43293557Y-66596466D01*
X43242037Y-66426627D01*
X43224641Y-66250000D01*
X43242037Y-66073373D01*
X43293557Y-65903534D01*
X43377222Y-65747009D01*
X43445702Y-65663566D01*
X43489814Y-65609814D01*
X43599408Y-65519874D01*
X43627009Y-65497222D01*
X43783534Y-65413557D01*
X43953373Y-65362037D01*
X44019557Y-65355519D01*
X44085740Y-65349000D01*
X44174260Y-65349000D01*
X44240443Y-65355519D01*
X44240443Y-65355519D01*
G37*
G36*
X41700443Y-65355519D02*
G01*
X41766627Y-65362037D01*
X41936466Y-65413557D01*
X42092991Y-65497222D01*
X42120592Y-65519874D01*
X42230186Y-65609814D01*
X42274298Y-65663566D01*
X42342778Y-65747009D01*
X42426443Y-65903534D01*
X42477963Y-66073373D01*
X42495359Y-66250000D01*
X42477963Y-66426627D01*
X42426443Y-66596466D01*
X42342778Y-66752991D01*
X42313448Y-66788729D01*
X42230186Y-66890186D01*
X42128729Y-66973448D01*
X42092991Y-67002778D01*
X41936466Y-67086443D01*
X41766627Y-67137963D01*
X41700442Y-67144482D01*
X41634260Y-67151000D01*
X41545740Y-67151000D01*
X41479558Y-67144482D01*
X41413373Y-67137963D01*
X41243534Y-67086443D01*
X41087009Y-67002778D01*
X41051271Y-66973448D01*
X40949814Y-66890186D01*
X40866552Y-66788729D01*
X40837222Y-66752991D01*
X40753557Y-66596466D01*
X40702037Y-66426627D01*
X40684641Y-66250000D01*
X40702037Y-66073373D01*
X40753557Y-65903534D01*
X40837222Y-65747009D01*
X40905702Y-65663566D01*
X40949814Y-65609814D01*
X41059408Y-65519874D01*
X41087009Y-65497222D01*
X41243534Y-65413557D01*
X41413373Y-65362037D01*
X41479557Y-65355519D01*
X41545740Y-65349000D01*
X41634260Y-65349000D01*
X41700443Y-65355519D01*
X41700443Y-65355519D01*
G37*
G36*
X39160443Y-65355519D02*
G01*
X39226627Y-65362037D01*
X39396466Y-65413557D01*
X39552991Y-65497222D01*
X39580592Y-65519874D01*
X39690186Y-65609814D01*
X39734298Y-65663566D01*
X39802778Y-65747009D01*
X39886443Y-65903534D01*
X39937963Y-66073373D01*
X39955359Y-66250000D01*
X39937963Y-66426627D01*
X39886443Y-66596466D01*
X39802778Y-66752991D01*
X39773448Y-66788729D01*
X39690186Y-66890186D01*
X39588729Y-66973448D01*
X39552991Y-67002778D01*
X39396466Y-67086443D01*
X39226627Y-67137963D01*
X39160442Y-67144482D01*
X39094260Y-67151000D01*
X39005740Y-67151000D01*
X38939558Y-67144482D01*
X38873373Y-67137963D01*
X38703534Y-67086443D01*
X38547009Y-67002778D01*
X38511271Y-66973448D01*
X38409814Y-66890186D01*
X38326552Y-66788729D01*
X38297222Y-66752991D01*
X38213557Y-66596466D01*
X38162037Y-66426627D01*
X38144641Y-66250000D01*
X38162037Y-66073373D01*
X38213557Y-65903534D01*
X38297222Y-65747009D01*
X38365702Y-65663566D01*
X38409814Y-65609814D01*
X38519408Y-65519874D01*
X38547009Y-65497222D01*
X38703534Y-65413557D01*
X38873373Y-65362037D01*
X38939557Y-65355519D01*
X39005740Y-65349000D01*
X39094260Y-65349000D01*
X39160443Y-65355519D01*
X39160443Y-65355519D01*
G37*
G36*
X36620443Y-65355519D02*
G01*
X36686627Y-65362037D01*
X36856466Y-65413557D01*
X37012991Y-65497222D01*
X37040592Y-65519874D01*
X37150186Y-65609814D01*
X37194298Y-65663566D01*
X37262778Y-65747009D01*
X37346443Y-65903534D01*
X37397963Y-66073373D01*
X37415359Y-66250000D01*
X37397963Y-66426627D01*
X37346443Y-66596466D01*
X37262778Y-66752991D01*
X37233448Y-66788729D01*
X37150186Y-66890186D01*
X37048729Y-66973448D01*
X37012991Y-67002778D01*
X36856466Y-67086443D01*
X36686627Y-67137963D01*
X36620442Y-67144482D01*
X36554260Y-67151000D01*
X36465740Y-67151000D01*
X36399558Y-67144482D01*
X36333373Y-67137963D01*
X36163534Y-67086443D01*
X36007009Y-67002778D01*
X35971271Y-66973448D01*
X35869814Y-66890186D01*
X35786552Y-66788729D01*
X35757222Y-66752991D01*
X35673557Y-66596466D01*
X35622037Y-66426627D01*
X35604641Y-66250000D01*
X35622037Y-66073373D01*
X35673557Y-65903534D01*
X35757222Y-65747009D01*
X35825702Y-65663566D01*
X35869814Y-65609814D01*
X35979408Y-65519874D01*
X36007009Y-65497222D01*
X36163534Y-65413557D01*
X36333373Y-65362037D01*
X36399557Y-65355519D01*
X36465740Y-65349000D01*
X36554260Y-65349000D01*
X36620443Y-65355519D01*
X36620443Y-65355519D01*
G37*
G36*
X62382987Y-63237457D02*
G01*
X62621937Y-63336434D01*
X62621939Y-63336435D01*
X62836989Y-63480126D01*
X63019874Y-63663011D01*
X63163565Y-63878061D01*
X63163566Y-63878063D01*
X63262543Y-64117013D01*
X63313000Y-64370679D01*
X63313000Y-64629321D01*
X63262543Y-64882987D01*
X63186585Y-65066365D01*
X63163565Y-65121939D01*
X63019874Y-65336989D01*
X62836989Y-65519874D01*
X62621939Y-65663565D01*
X62621938Y-65663566D01*
X62621937Y-65663566D01*
X62382987Y-65762543D01*
X62129321Y-65813000D01*
X61870679Y-65813000D01*
X61617013Y-65762543D01*
X61378063Y-65663566D01*
X61378062Y-65663566D01*
X61378061Y-65663565D01*
X61163011Y-65519874D01*
X60980126Y-65336989D01*
X60836435Y-65121939D01*
X60813415Y-65066365D01*
X60737457Y-64882987D01*
X60687000Y-64629321D01*
X60687000Y-64370679D01*
X60737457Y-64117013D01*
X60836434Y-63878063D01*
X60836435Y-63878061D01*
X60980126Y-63663011D01*
X61163011Y-63480126D01*
X61378061Y-63336435D01*
X61378063Y-63336434D01*
X61617013Y-63237457D01*
X61870679Y-63187000D01*
X62129321Y-63187000D01*
X62382987Y-63237457D01*
X62382987Y-63237457D01*
G37*
G36*
X57382987Y-63237457D02*
G01*
X57621937Y-63336434D01*
X57621939Y-63336435D01*
X57836989Y-63480126D01*
X58019874Y-63663011D01*
X58163565Y-63878061D01*
X58163566Y-63878063D01*
X58262543Y-64117013D01*
X58313000Y-64370679D01*
X58313000Y-64629321D01*
X58262543Y-64882987D01*
X58186585Y-65066365D01*
X58163565Y-65121939D01*
X58019874Y-65336989D01*
X57836989Y-65519874D01*
X57621939Y-65663565D01*
X57621938Y-65663566D01*
X57621937Y-65663566D01*
X57382987Y-65762543D01*
X57129321Y-65813000D01*
X56870679Y-65813000D01*
X56617013Y-65762543D01*
X56378063Y-65663566D01*
X56378062Y-65663566D01*
X56378061Y-65663565D01*
X56163011Y-65519874D01*
X55980126Y-65336989D01*
X55836435Y-65121939D01*
X55813415Y-65066365D01*
X55737457Y-64882987D01*
X55687000Y-64629321D01*
X55687000Y-64370679D01*
X55737457Y-64117013D01*
X55836434Y-63878063D01*
X55836435Y-63878061D01*
X55980126Y-63663011D01*
X56163011Y-63480126D01*
X56378061Y-63336435D01*
X56378063Y-63336434D01*
X56617013Y-63237457D01*
X56870679Y-63187000D01*
X57129321Y-63187000D01*
X57382987Y-63237457D01*
X57382987Y-63237457D01*
G37*
G36*
X96382987Y-63237457D02*
G01*
X96621937Y-63336434D01*
X96621939Y-63336435D01*
X96836989Y-63480126D01*
X97019874Y-63663011D01*
X97163565Y-63878061D01*
X97163566Y-63878063D01*
X97262543Y-64117013D01*
X97313000Y-64370679D01*
X97313000Y-64629321D01*
X97262543Y-64882987D01*
X97186585Y-65066365D01*
X97163565Y-65121939D01*
X97019874Y-65336989D01*
X96836989Y-65519874D01*
X96621939Y-65663565D01*
X96621938Y-65663566D01*
X96621937Y-65663566D01*
X96382987Y-65762543D01*
X96129321Y-65813000D01*
X95870679Y-65813000D01*
X95617013Y-65762543D01*
X95378063Y-65663566D01*
X95378062Y-65663566D01*
X95378061Y-65663565D01*
X95163011Y-65519874D01*
X94980126Y-65336989D01*
X94836435Y-65121939D01*
X94813415Y-65066365D01*
X94737457Y-64882987D01*
X94687000Y-64629321D01*
X94687000Y-64370679D01*
X94737457Y-64117013D01*
X94836434Y-63878063D01*
X94836435Y-63878061D01*
X94980126Y-63663011D01*
X95163011Y-63480126D01*
X95378061Y-63336435D01*
X95378063Y-63336434D01*
X95617013Y-63237457D01*
X95870679Y-63187000D01*
X96129321Y-63187000D01*
X96382987Y-63237457D01*
X96382987Y-63237457D01*
G37*
G36*
X91382987Y-63237457D02*
G01*
X91621937Y-63336434D01*
X91621939Y-63336435D01*
X91836989Y-63480126D01*
X92019874Y-63663011D01*
X92163565Y-63878061D01*
X92163566Y-63878063D01*
X92262543Y-64117013D01*
X92313000Y-64370679D01*
X92313000Y-64629321D01*
X92262543Y-64882987D01*
X92186585Y-65066365D01*
X92163565Y-65121939D01*
X92019874Y-65336989D01*
X91836989Y-65519874D01*
X91621939Y-65663565D01*
X91621938Y-65663566D01*
X91621937Y-65663566D01*
X91382987Y-65762543D01*
X91129321Y-65813000D01*
X90870679Y-65813000D01*
X90617013Y-65762543D01*
X90378063Y-65663566D01*
X90378062Y-65663566D01*
X90378061Y-65663565D01*
X90163011Y-65519874D01*
X89980126Y-65336989D01*
X89836435Y-65121939D01*
X89813415Y-65066365D01*
X89737457Y-64882987D01*
X89687000Y-64629321D01*
X89687000Y-64370679D01*
X89737457Y-64117013D01*
X89836434Y-63878063D01*
X89836435Y-63878061D01*
X89980126Y-63663011D01*
X90163011Y-63480126D01*
X90378061Y-63336435D01*
X90378063Y-63336434D01*
X90617013Y-63237457D01*
X90870679Y-63187000D01*
X91129321Y-63187000D01*
X91382987Y-63237457D01*
X91382987Y-63237457D01*
G37*
G36*
X65556564Y-63239389D02*
G01*
X65747833Y-63318615D01*
X65747835Y-63318616D01*
X65815059Y-63363534D01*
X65919973Y-63433635D01*
X66066365Y-63580027D01*
X66181385Y-63752167D01*
X66260611Y-63943436D01*
X66301000Y-64146484D01*
X66301000Y-64353516D01*
X66260611Y-64556564D01*
X66230475Y-64629319D01*
X66181384Y-64747835D01*
X66066365Y-64919973D01*
X65919973Y-65066365D01*
X65747835Y-65181384D01*
X65747834Y-65181385D01*
X65747833Y-65181385D01*
X65556564Y-65260611D01*
X65353516Y-65301000D01*
X65146484Y-65301000D01*
X64943436Y-65260611D01*
X64752167Y-65181385D01*
X64752166Y-65181385D01*
X64752165Y-65181384D01*
X64580027Y-65066365D01*
X64433635Y-64919973D01*
X64318616Y-64747835D01*
X64269525Y-64629319D01*
X64239389Y-64556564D01*
X64199000Y-64353516D01*
X64199000Y-64146484D01*
X64239389Y-63943436D01*
X64318615Y-63752167D01*
X64433635Y-63580027D01*
X64580027Y-63433635D01*
X64684941Y-63363534D01*
X64752165Y-63318616D01*
X64752167Y-63318615D01*
X64943436Y-63239389D01*
X65146484Y-63199000D01*
X65353516Y-63199000D01*
X65556564Y-63239389D01*
X65556564Y-63239389D01*
G37*
G36*
X79056564Y-63239389D02*
G01*
X79247833Y-63318615D01*
X79247835Y-63318616D01*
X79315059Y-63363534D01*
X79419973Y-63433635D01*
X79566365Y-63580027D01*
X79681385Y-63752167D01*
X79760611Y-63943436D01*
X79801000Y-64146484D01*
X79801000Y-64353516D01*
X79760611Y-64556564D01*
X79730475Y-64629319D01*
X79681384Y-64747835D01*
X79566365Y-64919973D01*
X79419973Y-65066365D01*
X79247835Y-65181384D01*
X79247834Y-65181385D01*
X79247833Y-65181385D01*
X79056564Y-65260611D01*
X78853516Y-65301000D01*
X78646484Y-65301000D01*
X78443436Y-65260611D01*
X78252167Y-65181385D01*
X78252166Y-65181385D01*
X78252165Y-65181384D01*
X78080027Y-65066365D01*
X77933635Y-64919973D01*
X77818616Y-64747835D01*
X77769525Y-64629319D01*
X77739389Y-64556564D01*
X77699000Y-64353516D01*
X77699000Y-64146484D01*
X77739389Y-63943436D01*
X77818615Y-63752167D01*
X77933635Y-63580027D01*
X78080027Y-63433635D01*
X78184941Y-63363534D01*
X78252165Y-63318616D01*
X78252167Y-63318615D01*
X78443436Y-63239389D01*
X78646484Y-63199000D01*
X78853516Y-63199000D01*
X79056564Y-63239389D01*
X79056564Y-63239389D01*
G37*
G36*
X83556564Y-63239389D02*
G01*
X83747833Y-63318615D01*
X83747835Y-63318616D01*
X83815059Y-63363534D01*
X83919973Y-63433635D01*
X84066365Y-63580027D01*
X84181385Y-63752167D01*
X84260611Y-63943436D01*
X84301000Y-64146484D01*
X84301000Y-64353516D01*
X84260611Y-64556564D01*
X84230475Y-64629319D01*
X84181384Y-64747835D01*
X84066365Y-64919973D01*
X83919973Y-65066365D01*
X83747835Y-65181384D01*
X83747834Y-65181385D01*
X83747833Y-65181385D01*
X83556564Y-65260611D01*
X83353516Y-65301000D01*
X83146484Y-65301000D01*
X82943436Y-65260611D01*
X82752167Y-65181385D01*
X82752166Y-65181385D01*
X82752165Y-65181384D01*
X82580027Y-65066365D01*
X82433635Y-64919973D01*
X82318616Y-64747835D01*
X82269525Y-64629319D01*
X82239389Y-64556564D01*
X82199000Y-64353516D01*
X82199000Y-64146484D01*
X82239389Y-63943436D01*
X82318615Y-63752167D01*
X82433635Y-63580027D01*
X82580027Y-63433635D01*
X82684941Y-63363534D01*
X82752165Y-63318616D01*
X82752167Y-63318615D01*
X82943436Y-63239389D01*
X83146484Y-63199000D01*
X83353516Y-63199000D01*
X83556564Y-63239389D01*
X83556564Y-63239389D01*
G37*
G36*
X88056564Y-63239389D02*
G01*
X88247833Y-63318615D01*
X88247835Y-63318616D01*
X88315059Y-63363534D01*
X88419973Y-63433635D01*
X88566365Y-63580027D01*
X88681385Y-63752167D01*
X88760611Y-63943436D01*
X88801000Y-64146484D01*
X88801000Y-64353516D01*
X88760611Y-64556564D01*
X88730475Y-64629319D01*
X88681384Y-64747835D01*
X88566365Y-64919973D01*
X88419973Y-65066365D01*
X88247835Y-65181384D01*
X88247834Y-65181385D01*
X88247833Y-65181385D01*
X88056564Y-65260611D01*
X87853516Y-65301000D01*
X87646484Y-65301000D01*
X87443436Y-65260611D01*
X87252167Y-65181385D01*
X87252166Y-65181385D01*
X87252165Y-65181384D01*
X87080027Y-65066365D01*
X86933635Y-64919973D01*
X86818616Y-64747835D01*
X86769525Y-64629319D01*
X86739389Y-64556564D01*
X86699000Y-64353516D01*
X86699000Y-64146484D01*
X86739389Y-63943436D01*
X86818615Y-63752167D01*
X86933635Y-63580027D01*
X87080027Y-63433635D01*
X87184941Y-63363534D01*
X87252165Y-63318616D01*
X87252167Y-63318615D01*
X87443436Y-63239389D01*
X87646484Y-63199000D01*
X87853516Y-63199000D01*
X88056564Y-63239389D01*
X88056564Y-63239389D01*
G37*
G36*
X70056564Y-63239389D02*
G01*
X70247833Y-63318615D01*
X70247835Y-63318616D01*
X70315059Y-63363534D01*
X70419973Y-63433635D01*
X70566365Y-63580027D01*
X70681385Y-63752167D01*
X70760611Y-63943436D01*
X70801000Y-64146484D01*
X70801000Y-64353516D01*
X70760611Y-64556564D01*
X70730475Y-64629319D01*
X70681384Y-64747835D01*
X70566365Y-64919973D01*
X70419973Y-65066365D01*
X70247835Y-65181384D01*
X70247834Y-65181385D01*
X70247833Y-65181385D01*
X70056564Y-65260611D01*
X69853516Y-65301000D01*
X69646484Y-65301000D01*
X69443436Y-65260611D01*
X69252167Y-65181385D01*
X69252166Y-65181385D01*
X69252165Y-65181384D01*
X69080027Y-65066365D01*
X68933635Y-64919973D01*
X68818616Y-64747835D01*
X68769525Y-64629319D01*
X68739389Y-64556564D01*
X68699000Y-64353516D01*
X68699000Y-64146484D01*
X68739389Y-63943436D01*
X68818615Y-63752167D01*
X68933635Y-63580027D01*
X69080027Y-63433635D01*
X69184941Y-63363534D01*
X69252165Y-63318616D01*
X69252167Y-63318615D01*
X69443436Y-63239389D01*
X69646484Y-63199000D01*
X69853516Y-63199000D01*
X70056564Y-63239389D01*
X70056564Y-63239389D01*
G37*
G36*
X74556564Y-63239389D02*
G01*
X74747833Y-63318615D01*
X74747835Y-63318616D01*
X74815059Y-63363534D01*
X74919973Y-63433635D01*
X75066365Y-63580027D01*
X75181385Y-63752167D01*
X75260611Y-63943436D01*
X75301000Y-64146484D01*
X75301000Y-64353516D01*
X75260611Y-64556564D01*
X75230475Y-64629319D01*
X75181384Y-64747835D01*
X75066365Y-64919973D01*
X74919973Y-65066365D01*
X74747835Y-65181384D01*
X74747834Y-65181385D01*
X74747833Y-65181385D01*
X74556564Y-65260611D01*
X74353516Y-65301000D01*
X74146484Y-65301000D01*
X73943436Y-65260611D01*
X73752167Y-65181385D01*
X73752166Y-65181385D01*
X73752165Y-65181384D01*
X73580027Y-65066365D01*
X73433635Y-64919973D01*
X73318616Y-64747835D01*
X73269525Y-64629319D01*
X73239389Y-64556564D01*
X73199000Y-64353516D01*
X73199000Y-64146484D01*
X73239389Y-63943436D01*
X73318615Y-63752167D01*
X73433635Y-63580027D01*
X73580027Y-63433635D01*
X73684941Y-63363534D01*
X73752165Y-63318616D01*
X73752167Y-63318615D01*
X73943436Y-63239389D01*
X74146484Y-63199000D01*
X74353516Y-63199000D01*
X74556564Y-63239389D01*
X74556564Y-63239389D01*
G37*
G36*
X36620442Y-62815518D02*
G01*
X36686627Y-62822037D01*
X36856466Y-62873557D01*
X37012991Y-62957222D01*
X37048729Y-62986552D01*
X37150186Y-63069814D01*
X37233448Y-63171271D01*
X37262778Y-63207009D01*
X37346443Y-63363534D01*
X37397963Y-63533373D01*
X37415359Y-63710000D01*
X37397963Y-63886627D01*
X37346443Y-64056466D01*
X37262778Y-64212991D01*
X37233448Y-64248729D01*
X37150186Y-64350186D01*
X37048729Y-64433448D01*
X37012991Y-64462778D01*
X36856466Y-64546443D01*
X36686627Y-64597963D01*
X36620443Y-64604481D01*
X36554260Y-64611000D01*
X36465740Y-64611000D01*
X36399557Y-64604481D01*
X36333373Y-64597963D01*
X36163534Y-64546443D01*
X36007009Y-64462778D01*
X35971271Y-64433448D01*
X35869814Y-64350186D01*
X35786552Y-64248729D01*
X35757222Y-64212991D01*
X35673557Y-64056466D01*
X35622037Y-63886627D01*
X35604641Y-63710000D01*
X35622037Y-63533373D01*
X35673557Y-63363534D01*
X35757222Y-63207009D01*
X35786552Y-63171271D01*
X35869814Y-63069814D01*
X35971271Y-62986552D01*
X36007009Y-62957222D01*
X36163534Y-62873557D01*
X36333373Y-62822037D01*
X36399558Y-62815518D01*
X36465740Y-62809000D01*
X36554260Y-62809000D01*
X36620442Y-62815518D01*
X36620442Y-62815518D01*
G37*
G36*
X51860442Y-62815518D02*
G01*
X51926627Y-62822037D01*
X52096466Y-62873557D01*
X52252991Y-62957222D01*
X52288729Y-62986552D01*
X52390186Y-63069814D01*
X52473448Y-63171271D01*
X52502778Y-63207009D01*
X52586443Y-63363534D01*
X52637963Y-63533373D01*
X52655359Y-63710000D01*
X52637963Y-63886627D01*
X52586443Y-64056466D01*
X52502778Y-64212991D01*
X52473448Y-64248729D01*
X52390186Y-64350186D01*
X52288729Y-64433448D01*
X52252991Y-64462778D01*
X52096466Y-64546443D01*
X51926627Y-64597963D01*
X51860443Y-64604481D01*
X51794260Y-64611000D01*
X51705740Y-64611000D01*
X51639557Y-64604481D01*
X51573373Y-64597963D01*
X51403534Y-64546443D01*
X51247009Y-64462778D01*
X51211271Y-64433448D01*
X51109814Y-64350186D01*
X51026552Y-64248729D01*
X50997222Y-64212991D01*
X50913557Y-64056466D01*
X50862037Y-63886627D01*
X50844641Y-63710000D01*
X50862037Y-63533373D01*
X50913557Y-63363534D01*
X50997222Y-63207009D01*
X51026552Y-63171271D01*
X51109814Y-63069814D01*
X51211271Y-62986552D01*
X51247009Y-62957222D01*
X51403534Y-62873557D01*
X51573373Y-62822037D01*
X51639558Y-62815518D01*
X51705740Y-62809000D01*
X51794260Y-62809000D01*
X51860442Y-62815518D01*
X51860442Y-62815518D01*
G37*
G36*
X49320442Y-62815518D02*
G01*
X49386627Y-62822037D01*
X49556466Y-62873557D01*
X49712991Y-62957222D01*
X49748729Y-62986552D01*
X49850186Y-63069814D01*
X49933448Y-63171271D01*
X49962778Y-63207009D01*
X50046443Y-63363534D01*
X50097963Y-63533373D01*
X50115359Y-63710000D01*
X50097963Y-63886627D01*
X50046443Y-64056466D01*
X49962778Y-64212991D01*
X49933448Y-64248729D01*
X49850186Y-64350186D01*
X49748729Y-64433448D01*
X49712991Y-64462778D01*
X49556466Y-64546443D01*
X49386627Y-64597963D01*
X49320443Y-64604481D01*
X49254260Y-64611000D01*
X49165740Y-64611000D01*
X49099557Y-64604481D01*
X49033373Y-64597963D01*
X48863534Y-64546443D01*
X48707009Y-64462778D01*
X48671271Y-64433448D01*
X48569814Y-64350186D01*
X48486552Y-64248729D01*
X48457222Y-64212991D01*
X48373557Y-64056466D01*
X48322037Y-63886627D01*
X48304641Y-63710000D01*
X48322037Y-63533373D01*
X48373557Y-63363534D01*
X48457222Y-63207009D01*
X48486552Y-63171271D01*
X48569814Y-63069814D01*
X48671271Y-62986552D01*
X48707009Y-62957222D01*
X48863534Y-62873557D01*
X49033373Y-62822037D01*
X49099558Y-62815518D01*
X49165740Y-62809000D01*
X49254260Y-62809000D01*
X49320442Y-62815518D01*
X49320442Y-62815518D01*
G37*
G36*
X46780442Y-62815518D02*
G01*
X46846627Y-62822037D01*
X47016466Y-62873557D01*
X47172991Y-62957222D01*
X47208729Y-62986552D01*
X47310186Y-63069814D01*
X47393448Y-63171271D01*
X47422778Y-63207009D01*
X47506443Y-63363534D01*
X47557963Y-63533373D01*
X47575359Y-63710000D01*
X47557963Y-63886627D01*
X47506443Y-64056466D01*
X47422778Y-64212991D01*
X47393448Y-64248729D01*
X47310186Y-64350186D01*
X47208729Y-64433448D01*
X47172991Y-64462778D01*
X47016466Y-64546443D01*
X46846627Y-64597963D01*
X46780443Y-64604481D01*
X46714260Y-64611000D01*
X46625740Y-64611000D01*
X46559557Y-64604481D01*
X46493373Y-64597963D01*
X46323534Y-64546443D01*
X46167009Y-64462778D01*
X46131271Y-64433448D01*
X46029814Y-64350186D01*
X45946552Y-64248729D01*
X45917222Y-64212991D01*
X45833557Y-64056466D01*
X45782037Y-63886627D01*
X45764641Y-63710000D01*
X45782037Y-63533373D01*
X45833557Y-63363534D01*
X45917222Y-63207009D01*
X45946552Y-63171271D01*
X46029814Y-63069814D01*
X46131271Y-62986552D01*
X46167009Y-62957222D01*
X46323534Y-62873557D01*
X46493373Y-62822037D01*
X46559558Y-62815518D01*
X46625740Y-62809000D01*
X46714260Y-62809000D01*
X46780442Y-62815518D01*
X46780442Y-62815518D01*
G37*
G36*
X41700442Y-62815518D02*
G01*
X41766627Y-62822037D01*
X41936466Y-62873557D01*
X42092991Y-62957222D01*
X42128729Y-62986552D01*
X42230186Y-63069814D01*
X42313448Y-63171271D01*
X42342778Y-63207009D01*
X42426443Y-63363534D01*
X42477963Y-63533373D01*
X42495359Y-63710000D01*
X42477963Y-63886627D01*
X42426443Y-64056466D01*
X42342778Y-64212991D01*
X42313448Y-64248729D01*
X42230186Y-64350186D01*
X42128729Y-64433448D01*
X42092991Y-64462778D01*
X41936466Y-64546443D01*
X41766627Y-64597963D01*
X41700443Y-64604481D01*
X41634260Y-64611000D01*
X41545740Y-64611000D01*
X41479557Y-64604481D01*
X41413373Y-64597963D01*
X41243534Y-64546443D01*
X41087009Y-64462778D01*
X41051271Y-64433448D01*
X40949814Y-64350186D01*
X40866552Y-64248729D01*
X40837222Y-64212991D01*
X40753557Y-64056466D01*
X40702037Y-63886627D01*
X40684641Y-63710000D01*
X40702037Y-63533373D01*
X40753557Y-63363534D01*
X40837222Y-63207009D01*
X40866552Y-63171271D01*
X40949814Y-63069814D01*
X41051271Y-62986552D01*
X41087009Y-62957222D01*
X41243534Y-62873557D01*
X41413373Y-62822037D01*
X41479558Y-62815518D01*
X41545740Y-62809000D01*
X41634260Y-62809000D01*
X41700442Y-62815518D01*
X41700442Y-62815518D01*
G37*
G36*
X39160442Y-62815518D02*
G01*
X39226627Y-62822037D01*
X39396466Y-62873557D01*
X39552991Y-62957222D01*
X39588729Y-62986552D01*
X39690186Y-63069814D01*
X39773448Y-63171271D01*
X39802778Y-63207009D01*
X39886443Y-63363534D01*
X39937963Y-63533373D01*
X39955359Y-63710000D01*
X39937963Y-63886627D01*
X39886443Y-64056466D01*
X39802778Y-64212991D01*
X39773448Y-64248729D01*
X39690186Y-64350186D01*
X39588729Y-64433448D01*
X39552991Y-64462778D01*
X39396466Y-64546443D01*
X39226627Y-64597963D01*
X39160443Y-64604481D01*
X39094260Y-64611000D01*
X39005740Y-64611000D01*
X38939557Y-64604481D01*
X38873373Y-64597963D01*
X38703534Y-64546443D01*
X38547009Y-64462778D01*
X38511271Y-64433448D01*
X38409814Y-64350186D01*
X38326552Y-64248729D01*
X38297222Y-64212991D01*
X38213557Y-64056466D01*
X38162037Y-63886627D01*
X38144641Y-63710000D01*
X38162037Y-63533373D01*
X38213557Y-63363534D01*
X38297222Y-63207009D01*
X38326552Y-63171271D01*
X38409814Y-63069814D01*
X38511271Y-62986552D01*
X38547009Y-62957222D01*
X38703534Y-62873557D01*
X38873373Y-62822037D01*
X38939558Y-62815518D01*
X39005740Y-62809000D01*
X39094260Y-62809000D01*
X39160442Y-62815518D01*
X39160442Y-62815518D01*
G37*
G36*
X44240442Y-62815518D02*
G01*
X44306627Y-62822037D01*
X44476466Y-62873557D01*
X44632991Y-62957222D01*
X44668729Y-62986552D01*
X44770186Y-63069814D01*
X44853448Y-63171271D01*
X44882778Y-63207009D01*
X44966443Y-63363534D01*
X45017963Y-63533373D01*
X45035359Y-63710000D01*
X45017963Y-63886627D01*
X44966443Y-64056466D01*
X44882778Y-64212991D01*
X44853448Y-64248729D01*
X44770186Y-64350186D01*
X44668729Y-64433448D01*
X44632991Y-64462778D01*
X44476466Y-64546443D01*
X44306627Y-64597963D01*
X44240443Y-64604481D01*
X44174260Y-64611000D01*
X44085740Y-64611000D01*
X44019557Y-64604481D01*
X43953373Y-64597963D01*
X43783534Y-64546443D01*
X43627009Y-64462778D01*
X43591271Y-64433448D01*
X43489814Y-64350186D01*
X43406552Y-64248729D01*
X43377222Y-64212991D01*
X43293557Y-64056466D01*
X43242037Y-63886627D01*
X43224641Y-63710000D01*
X43242037Y-63533373D01*
X43293557Y-63363534D01*
X43377222Y-63207009D01*
X43406552Y-63171271D01*
X43489814Y-63069814D01*
X43591271Y-62986552D01*
X43627009Y-62957222D01*
X43783534Y-62873557D01*
X43953373Y-62822037D01*
X44019558Y-62815518D01*
X44085740Y-62809000D01*
X44174260Y-62809000D01*
X44240442Y-62815518D01*
X44240442Y-62815518D01*
G37*
G36*
X60025331Y-59268211D02*
G01*
X60353092Y-59403974D01*
X60648070Y-59601072D01*
X60898928Y-59851930D01*
X61096026Y-60146908D01*
X61231789Y-60474669D01*
X61301000Y-60822616D01*
X61301000Y-61177384D01*
X61231789Y-61525331D01*
X61096026Y-61853092D01*
X60898928Y-62148070D01*
X60648070Y-62398928D01*
X60353092Y-62596026D01*
X60025331Y-62731789D01*
X59677384Y-62801000D01*
X59322616Y-62801000D01*
X58974669Y-62731789D01*
X58646908Y-62596026D01*
X58351930Y-62398928D01*
X58101072Y-62148070D01*
X57903974Y-61853092D01*
X57768211Y-61525331D01*
X57699000Y-61177384D01*
X57699000Y-60822616D01*
X57768211Y-60474669D01*
X57903974Y-60146908D01*
X58101072Y-59851930D01*
X58351930Y-59601072D01*
X58646908Y-59403974D01*
X58974669Y-59268211D01*
X59322616Y-59199000D01*
X59677384Y-59199000D01*
X60025331Y-59268211D01*
X60025331Y-59268211D01*
G37*
G36*
X94025331Y-59268211D02*
G01*
X94353092Y-59403974D01*
X94648070Y-59601072D01*
X94898928Y-59851930D01*
X95096026Y-60146908D01*
X95231789Y-60474669D01*
X95301000Y-60822616D01*
X95301000Y-61177384D01*
X95231789Y-61525331D01*
X95096026Y-61853092D01*
X94898928Y-62148070D01*
X94648070Y-62398928D01*
X94353092Y-62596026D01*
X94025331Y-62731789D01*
X93677384Y-62801000D01*
X93322616Y-62801000D01*
X92974669Y-62731789D01*
X92646908Y-62596026D01*
X92351930Y-62398928D01*
X92101072Y-62148070D01*
X91903974Y-61853092D01*
X91768211Y-61525331D01*
X91699000Y-61177384D01*
X91699000Y-60822616D01*
X91768211Y-60474669D01*
X91903974Y-60146908D01*
X92101072Y-59851930D01*
X92351930Y-59601072D01*
X92646908Y-59403974D01*
X92974669Y-59268211D01*
X93322616Y-59199000D01*
X93677384Y-59199000D01*
X94025331Y-59268211D01*
X94025331Y-59268211D01*
G37*
G36*
X57382987Y-56237457D02*
G01*
X57621937Y-56336434D01*
X57621939Y-56336435D01*
X57836989Y-56480126D01*
X58019874Y-56663011D01*
X58123845Y-56818616D01*
X58163566Y-56878063D01*
X58262543Y-57117013D01*
X58313000Y-57370679D01*
X58313000Y-57629321D01*
X58262543Y-57882987D01*
X58190644Y-58056565D01*
X58163565Y-58121939D01*
X58019874Y-58336989D01*
X57836989Y-58519874D01*
X57621939Y-58663565D01*
X57621938Y-58663566D01*
X57621937Y-58663566D01*
X57382987Y-58762543D01*
X57129321Y-58813000D01*
X56870679Y-58813000D01*
X56617013Y-58762543D01*
X56378063Y-58663566D01*
X56378062Y-58663566D01*
X56378061Y-58663565D01*
X56163011Y-58519874D01*
X55980126Y-58336989D01*
X55836435Y-58121939D01*
X55809356Y-58056565D01*
X55737457Y-57882987D01*
X55687000Y-57629321D01*
X55687000Y-57370679D01*
X55737457Y-57117013D01*
X55836434Y-56878063D01*
X55876155Y-56818616D01*
X55980126Y-56663011D01*
X56163011Y-56480126D01*
X56378061Y-56336435D01*
X56378063Y-56336434D01*
X56617013Y-56237457D01*
X56870679Y-56187000D01*
X57129321Y-56187000D01*
X57382987Y-56237457D01*
X57382987Y-56237457D01*
G37*
G36*
X62382987Y-56237457D02*
G01*
X62621937Y-56336434D01*
X62621939Y-56336435D01*
X62836989Y-56480126D01*
X63019874Y-56663011D01*
X63123845Y-56818616D01*
X63163566Y-56878063D01*
X63262543Y-57117013D01*
X63313000Y-57370679D01*
X63313000Y-57629321D01*
X63262543Y-57882987D01*
X63190644Y-58056565D01*
X63163565Y-58121939D01*
X63019874Y-58336989D01*
X62836989Y-58519874D01*
X62621939Y-58663565D01*
X62621938Y-58663566D01*
X62621937Y-58663566D01*
X62382987Y-58762543D01*
X62129321Y-58813000D01*
X61870679Y-58813000D01*
X61617013Y-58762543D01*
X61378063Y-58663566D01*
X61378062Y-58663566D01*
X61378061Y-58663565D01*
X61163011Y-58519874D01*
X60980126Y-58336989D01*
X60836435Y-58121939D01*
X60809356Y-58056565D01*
X60737457Y-57882987D01*
X60687000Y-57629321D01*
X60687000Y-57370679D01*
X60737457Y-57117013D01*
X60836434Y-56878063D01*
X60876155Y-56818616D01*
X60980126Y-56663011D01*
X61163011Y-56480126D01*
X61378061Y-56336435D01*
X61378063Y-56336434D01*
X61617013Y-56237457D01*
X61870679Y-56187000D01*
X62129321Y-56187000D01*
X62382987Y-56237457D01*
X62382987Y-56237457D01*
G37*
G36*
X91382987Y-56237457D02*
G01*
X91621937Y-56336434D01*
X91621939Y-56336435D01*
X91836989Y-56480126D01*
X92019874Y-56663011D01*
X92123845Y-56818616D01*
X92163566Y-56878063D01*
X92262543Y-57117013D01*
X92313000Y-57370679D01*
X92313000Y-57629321D01*
X92262543Y-57882987D01*
X92190644Y-58056565D01*
X92163565Y-58121939D01*
X92019874Y-58336989D01*
X91836989Y-58519874D01*
X91621939Y-58663565D01*
X91621938Y-58663566D01*
X91621937Y-58663566D01*
X91382987Y-58762543D01*
X91129321Y-58813000D01*
X90870679Y-58813000D01*
X90617013Y-58762543D01*
X90378063Y-58663566D01*
X90378062Y-58663566D01*
X90378061Y-58663565D01*
X90163011Y-58519874D01*
X89980126Y-58336989D01*
X89836435Y-58121939D01*
X89809356Y-58056565D01*
X89737457Y-57882987D01*
X89687000Y-57629321D01*
X89687000Y-57370679D01*
X89737457Y-57117013D01*
X89836434Y-56878063D01*
X89876155Y-56818616D01*
X89980126Y-56663011D01*
X90163011Y-56480126D01*
X90378061Y-56336435D01*
X90378063Y-56336434D01*
X90617013Y-56237457D01*
X90870679Y-56187000D01*
X91129321Y-56187000D01*
X91382987Y-56237457D01*
X91382987Y-56237457D01*
G37*
G36*
X96382987Y-56237457D02*
G01*
X96621937Y-56336434D01*
X96621939Y-56336435D01*
X96836989Y-56480126D01*
X97019874Y-56663011D01*
X97123845Y-56818616D01*
X97163566Y-56878063D01*
X97262543Y-57117013D01*
X97313000Y-57370679D01*
X97313000Y-57629321D01*
X97262543Y-57882987D01*
X97190644Y-58056565D01*
X97163565Y-58121939D01*
X97019874Y-58336989D01*
X96836989Y-58519874D01*
X96621939Y-58663565D01*
X96621938Y-58663566D01*
X96621937Y-58663566D01*
X96382987Y-58762543D01*
X96129321Y-58813000D01*
X95870679Y-58813000D01*
X95617013Y-58762543D01*
X95378063Y-58663566D01*
X95378062Y-58663566D01*
X95378061Y-58663565D01*
X95163011Y-58519874D01*
X94980126Y-58336989D01*
X94836435Y-58121939D01*
X94809356Y-58056565D01*
X94737457Y-57882987D01*
X94687000Y-57629321D01*
X94687000Y-57370679D01*
X94737457Y-57117013D01*
X94836434Y-56878063D01*
X94876155Y-56818616D01*
X94980126Y-56663011D01*
X95163011Y-56480126D01*
X95378061Y-56336435D01*
X95378063Y-56336434D01*
X95617013Y-56237457D01*
X95870679Y-56187000D01*
X96129321Y-56187000D01*
X96382987Y-56237457D01*
X96382987Y-56237457D01*
G37*
G36*
X74556564Y-56739389D02*
G01*
X74747833Y-56818615D01*
X74747835Y-56818616D01*
X74919973Y-56933635D01*
X75066365Y-57080027D01*
X75181385Y-57252167D01*
X75260611Y-57443436D01*
X75301000Y-57646484D01*
X75301000Y-57853516D01*
X75260611Y-58056564D01*
X75181385Y-58247833D01*
X75181384Y-58247835D01*
X75066365Y-58419973D01*
X74919973Y-58566365D01*
X74747835Y-58681384D01*
X74747834Y-58681385D01*
X74747833Y-58681385D01*
X74556564Y-58760611D01*
X74353516Y-58801000D01*
X74146484Y-58801000D01*
X73943436Y-58760611D01*
X73752167Y-58681385D01*
X73752166Y-58681385D01*
X73752165Y-58681384D01*
X73580027Y-58566365D01*
X73433635Y-58419973D01*
X73318616Y-58247835D01*
X73318615Y-58247833D01*
X73239389Y-58056564D01*
X73199000Y-57853516D01*
X73199000Y-57646484D01*
X73239389Y-57443436D01*
X73318615Y-57252167D01*
X73433635Y-57080027D01*
X73580027Y-56933635D01*
X73752165Y-56818616D01*
X73752167Y-56818615D01*
X73943436Y-56739389D01*
X74146484Y-56699000D01*
X74353516Y-56699000D01*
X74556564Y-56739389D01*
X74556564Y-56739389D01*
G37*
G36*
X79056564Y-56739389D02*
G01*
X79247833Y-56818615D01*
X79247835Y-56818616D01*
X79419973Y-56933635D01*
X79566365Y-57080027D01*
X79681385Y-57252167D01*
X79760611Y-57443436D01*
X79801000Y-57646484D01*
X79801000Y-57853516D01*
X79760611Y-58056564D01*
X79681385Y-58247833D01*
X79681384Y-58247835D01*
X79566365Y-58419973D01*
X79419973Y-58566365D01*
X79247835Y-58681384D01*
X79247834Y-58681385D01*
X79247833Y-58681385D01*
X79056564Y-58760611D01*
X78853516Y-58801000D01*
X78646484Y-58801000D01*
X78443436Y-58760611D01*
X78252167Y-58681385D01*
X78252166Y-58681385D01*
X78252165Y-58681384D01*
X78080027Y-58566365D01*
X77933635Y-58419973D01*
X77818616Y-58247835D01*
X77818615Y-58247833D01*
X77739389Y-58056564D01*
X77699000Y-57853516D01*
X77699000Y-57646484D01*
X77739389Y-57443436D01*
X77818615Y-57252167D01*
X77933635Y-57080027D01*
X78080027Y-56933635D01*
X78252165Y-56818616D01*
X78252167Y-56818615D01*
X78443436Y-56739389D01*
X78646484Y-56699000D01*
X78853516Y-56699000D01*
X79056564Y-56739389D01*
X79056564Y-56739389D01*
G37*
G36*
X65556564Y-56739389D02*
G01*
X65747833Y-56818615D01*
X65747835Y-56818616D01*
X65919973Y-56933635D01*
X66066365Y-57080027D01*
X66181385Y-57252167D01*
X66260611Y-57443436D01*
X66301000Y-57646484D01*
X66301000Y-57853516D01*
X66260611Y-58056564D01*
X66181385Y-58247833D01*
X66181384Y-58247835D01*
X66066365Y-58419973D01*
X65919973Y-58566365D01*
X65747835Y-58681384D01*
X65747834Y-58681385D01*
X65747833Y-58681385D01*
X65556564Y-58760611D01*
X65353516Y-58801000D01*
X65146484Y-58801000D01*
X64943436Y-58760611D01*
X64752167Y-58681385D01*
X64752166Y-58681385D01*
X64752165Y-58681384D01*
X64580027Y-58566365D01*
X64433635Y-58419973D01*
X64318616Y-58247835D01*
X64318615Y-58247833D01*
X64239389Y-58056564D01*
X64199000Y-57853516D01*
X64199000Y-57646484D01*
X64239389Y-57443436D01*
X64318615Y-57252167D01*
X64433635Y-57080027D01*
X64580027Y-56933635D01*
X64752165Y-56818616D01*
X64752167Y-56818615D01*
X64943436Y-56739389D01*
X65146484Y-56699000D01*
X65353516Y-56699000D01*
X65556564Y-56739389D01*
X65556564Y-56739389D01*
G37*
G36*
X83556564Y-56739389D02*
G01*
X83747833Y-56818615D01*
X83747835Y-56818616D01*
X83919973Y-56933635D01*
X84066365Y-57080027D01*
X84181385Y-57252167D01*
X84260611Y-57443436D01*
X84301000Y-57646484D01*
X84301000Y-57853516D01*
X84260611Y-58056564D01*
X84181385Y-58247833D01*
X84181384Y-58247835D01*
X84066365Y-58419973D01*
X83919973Y-58566365D01*
X83747835Y-58681384D01*
X83747834Y-58681385D01*
X83747833Y-58681385D01*
X83556564Y-58760611D01*
X83353516Y-58801000D01*
X83146484Y-58801000D01*
X82943436Y-58760611D01*
X82752167Y-58681385D01*
X82752166Y-58681385D01*
X82752165Y-58681384D01*
X82580027Y-58566365D01*
X82433635Y-58419973D01*
X82318616Y-58247835D01*
X82318615Y-58247833D01*
X82239389Y-58056564D01*
X82199000Y-57853516D01*
X82199000Y-57646484D01*
X82239389Y-57443436D01*
X82318615Y-57252167D01*
X82433635Y-57080027D01*
X82580027Y-56933635D01*
X82752165Y-56818616D01*
X82752167Y-56818615D01*
X82943436Y-56739389D01*
X83146484Y-56699000D01*
X83353516Y-56699000D01*
X83556564Y-56739389D01*
X83556564Y-56739389D01*
G37*
G36*
X88056564Y-56739389D02*
G01*
X88247833Y-56818615D01*
X88247835Y-56818616D01*
X88419973Y-56933635D01*
X88566365Y-57080027D01*
X88681385Y-57252167D01*
X88760611Y-57443436D01*
X88801000Y-57646484D01*
X88801000Y-57853516D01*
X88760611Y-58056564D01*
X88681385Y-58247833D01*
X88681384Y-58247835D01*
X88566365Y-58419973D01*
X88419973Y-58566365D01*
X88247835Y-58681384D01*
X88247834Y-58681385D01*
X88247833Y-58681385D01*
X88056564Y-58760611D01*
X87853516Y-58801000D01*
X87646484Y-58801000D01*
X87443436Y-58760611D01*
X87252167Y-58681385D01*
X87252166Y-58681385D01*
X87252165Y-58681384D01*
X87080027Y-58566365D01*
X86933635Y-58419973D01*
X86818616Y-58247835D01*
X86818615Y-58247833D01*
X86739389Y-58056564D01*
X86699000Y-57853516D01*
X86699000Y-57646484D01*
X86739389Y-57443436D01*
X86818615Y-57252167D01*
X86933635Y-57080027D01*
X87080027Y-56933635D01*
X87252165Y-56818616D01*
X87252167Y-56818615D01*
X87443436Y-56739389D01*
X87646484Y-56699000D01*
X87853516Y-56699000D01*
X88056564Y-56739389D01*
X88056564Y-56739389D01*
G37*
G36*
X70056564Y-56739389D02*
G01*
X70247833Y-56818615D01*
X70247835Y-56818616D01*
X70419973Y-56933635D01*
X70566365Y-57080027D01*
X70681385Y-57252167D01*
X70760611Y-57443436D01*
X70801000Y-57646484D01*
X70801000Y-57853516D01*
X70760611Y-58056564D01*
X70681385Y-58247833D01*
X70681384Y-58247835D01*
X70566365Y-58419973D01*
X70419973Y-58566365D01*
X70247835Y-58681384D01*
X70247834Y-58681385D01*
X70247833Y-58681385D01*
X70056564Y-58760611D01*
X69853516Y-58801000D01*
X69646484Y-58801000D01*
X69443436Y-58760611D01*
X69252167Y-58681385D01*
X69252166Y-58681385D01*
X69252165Y-58681384D01*
X69080027Y-58566365D01*
X68933635Y-58419973D01*
X68818616Y-58247835D01*
X68818615Y-58247833D01*
X68739389Y-58056564D01*
X68699000Y-57853516D01*
X68699000Y-57646484D01*
X68739389Y-57443436D01*
X68818615Y-57252167D01*
X68933635Y-57080027D01*
X69080027Y-56933635D01*
X69252165Y-56818616D01*
X69252167Y-56818615D01*
X69443436Y-56739389D01*
X69646484Y-56699000D01*
X69853516Y-56699000D01*
X70056564Y-56739389D01*
X70056564Y-56739389D01*
G37*
M02*
