G04 #@! TF.GenerationSoftware,KiCad,Pcbnew,(5.1.0-0)*
G04 #@! TF.CreationDate,2019-03-17T12:10:36+00:00*
G04 #@! TF.ProjectId,A1200,41313230-302e-46b6-9963-61645f706362,rev?*
G04 #@! TF.SameCoordinates,Original*
G04 #@! TF.FileFunction,Legend,Top*
G04 #@! TF.FilePolarity,Positive*
%FSLAX46Y46*%
G04 Gerber Fmt 4.6, Leading zero omitted, Abs format (unit mm)*
G04 Created by KiCad (PCBNEW (5.1.0-0)) date 2019-03-17 12:10:36*
%MOMM*%
%LPD*%
G04 APERTURE LIST*
%ADD10C,0.120000*%
G04 APERTURE END LIST*
D10*
X96500000Y-63000000D02*
X96500000Y-59000000D01*
X92500000Y-65000000D02*
X94500000Y-65000000D01*
X92500000Y-57000000D02*
X94500000Y-57000000D01*
X90500000Y-63000000D02*
X90500000Y-59000000D01*
X62500000Y-63000000D02*
X62500000Y-59000000D01*
X58500000Y-65000000D02*
X60500000Y-65000000D01*
X58500000Y-57000000D02*
X60500000Y-57000000D01*
X56500000Y-63000000D02*
X56500000Y-59000000D01*
X68250000Y-57500000D02*
X66750000Y-57500000D01*
X64250000Y-58750000D02*
X64250000Y-63250000D01*
X66750000Y-64500000D02*
X68250000Y-64500000D01*
X70750000Y-63250000D02*
X70750000Y-58750000D01*
X77250000Y-57500000D02*
X75750000Y-57500000D01*
X73250000Y-58750000D02*
X73250000Y-63250000D01*
X75750000Y-64500000D02*
X77250000Y-64500000D01*
X79750000Y-63250000D02*
X79750000Y-58750000D01*
X86250000Y-57500000D02*
X84750000Y-57500000D01*
X82250000Y-58750000D02*
X82250000Y-63250000D01*
X84750000Y-64500000D02*
X86250000Y-64500000D01*
X88750000Y-63250000D02*
X88750000Y-58750000D01*
M02*
